<svg width="212" height="45" viewBox="0 0 212 45" fill="none" xmlns="http://www.w3.org/2000/svg">
<path d="M127.093 40.8088C121.945 40.8088 117.482 38.9935 113.827 35.4115C110.172 31.8309 108.319 27.4583 108.319 22.4142C108.319 17.37 110.172 13.0168 113.827 9.42923C117.482 5.8403 121.945 4.02092 127.094 4.02092C132.243 4.02092 136.688 5.8403 140.35 9.42784C144.012 13.0154 145.869 17.3838 145.869 22.4142C145.869 27.4445 144.012 31.8309 140.348 35.4115C136.686 38.9922 132.226 40.8074 127.093 40.8074V40.8088ZM127.093 12.8603C124.385 12.8603 122.135 13.7811 120.217 15.6738C118.297 17.568 117.363 19.7723 117.363 22.4155C117.363 25.0588 118.296 27.2755 120.214 29.1558C122.133 31.0348 124.383 31.9472 127.093 31.9472C129.802 31.9472 132.041 31.0334 133.974 29.1517C135.906 27.2714 136.845 25.0685 136.845 22.4142C136.845 19.7598 135.905 17.5694 133.971 15.6738C132.038 13.7797 129.788 12.8589 127.091 12.8589L127.093 12.8603Z" fill="#CA5D21"/>
<path d="M84.9145 41.3211L77.4139 4.28261H86.5766L90.8675 25.4755C94.2906 22.482 98.816 20.7761 103.384 20.7761H105.494V29.6031H103.384C97.9723 29.6031 93.5683 33.9314 93.5683 39.2497V41.3211H84.9131H84.9145Z" fill="#CA5D21"/>
<path d="M23.6493 40.9971V34.0061H3.53334L16.3085 4.07907L26.2286 4.13446L17.3289 25.0131H23.6493V20.7512H32.8289V25.0131H36.4075V34.0061H32.8289V40.9971H23.6493Z" fill="#CA5D21"/>
<path d="M57.9269 40.9971C52.7979 40.9971 48.3515 39.1874 44.7094 35.6206C41.0672 32.0539 39.2214 27.6965 39.2214 22.6717C39.2214 17.6469 41.0672 13.3089 44.708 9.73385C48.3487 6.15878 52.7965 4.34631 57.9269 4.34631C63.0573 4.34631 67.4867 6.15878 71.1345 9.73385C74.7837 13.3075 76.6337 17.6608 76.6337 22.6717C76.6337 27.6826 74.7837 32.0538 71.1345 35.622C67.4852 39.1888 63.0417 40.9985 57.9283 40.9985L57.9269 40.9971ZM57.9269 13.1511C55.2288 13.1511 52.9873 14.0677 51.075 15.9535C49.1628 17.8408 48.2328 20.0368 48.2328 22.6703C48.2328 25.3039 49.1614 27.5137 51.0736 29.3857C52.9859 31.2577 55.2274 32.1674 57.9269 32.1674C60.6263 32.1674 62.8566 31.2563 64.7844 29.3829C66.7093 27.5095 67.645 25.3135 67.645 22.6703C67.645 20.0271 66.7079 17.8422 64.783 15.9549C62.8566 14.0677 60.6136 13.1511 57.9283 13.1511H57.9269Z" fill="#CA5D21"/>
<path d="M185.028 40.9971V3.67892H208.467V12.4255H193.953V17.9654H204.839V26.712H193.953V32.2283H208.467V40.9971H185.028Z" fill="#CA5D21"/>
<path d="M158.459 40.9971L146.647 3.77031H155.594L164.43 31.6219L173.268 3.77031H182.214L170.403 40.9971H158.459Z" fill="#CA5D21"/>
</svg>
